<svg width="24" height="20" viewBox="0 0 24 20" fill="none" xmlns="http://www.w3.org/2000/svg">
<g id="fa:picture-o" clip-path="url(#clip0_371_40)">
<path id="Vector" d="M8 6.00611C8 6.67176 7.76667 7.23756 7.3 7.70351C6.83333 8.16947 6.26667 8.40245 5.6 8.40245C4.93333 8.40245 4.36667 8.16947 3.9 7.70351C3.43333 7.23756 3.2 6.67176 3.2 6.00611C3.2 5.34046 3.43333 4.77465 3.9 4.3087C4.36667 3.84274 4.93333 3.60976 5.6 3.60976C6.26667 3.60976 6.83333 3.84274 7.3 4.3087C7.76667 4.77465 8 5.34046 8 6.00611ZM20.8 10.7988V16.3903H3.2V13.9939L7.2 10L9.2 11.997L15.6 5.60672L20.8 10.7988ZM22 2.0122H2C1.89167 2.0122 1.79792 2.05173 1.71875 2.13077C1.63958 2.20982 1.6 2.30343 1.6 2.41159V17.5884C1.6 17.6966 1.63958 17.7902 1.71875 17.8692C1.79792 17.9483 1.89167 17.9878 2 17.9878H22C22.1083 17.9878 22.2021 17.9483 22.2812 17.8692C22.3604 17.7902 22.4 17.6966 22.4 17.5884V2.41159C22.4 2.30343 22.3604 2.20982 22.2812 2.13077C22.2021 2.05173 22.1083 2.0122 22 2.0122ZM24 2.41159V17.5884C24 18.1376 23.8042 18.6077 23.4125 18.9988C23.0208 19.3898 22.55 19.5854 22 19.5854H2C1.45 19.5854 0.979167 19.3898 0.5875 18.9988C0.195833 18.6077 0 18.1376 0 17.5884V2.41159C0 1.86243 0.195833 1.39232 0.5875 1.00125C0.979167 0.610177 1.45 0.414642 2 0.414642H22C22.55 0.414642 23.0208 0.610177 23.4125 1.00125C23.8042 1.39232 24 1.86243 24 2.41159Z" fill="#848484"/>
</g>
<defs>
<clipPath id="clip0_371_40">
<rect width="24" height="19.1707" fill="white" transform="translate(0 0.414642)"/>
</clipPath>
</defs>
</svg>
