<svg width="96" height="34" viewBox="0 0 96 34" fill="none" xmlns="http://www.w3.org/2000/svg">
<path id="Union" fill-rule="evenodd" clip-rule="evenodd" d="M39.9562 10.8548C43.676 11.3857 47.5273 12.0218 51.4476 12.7619L51.6108 12.7927C75.3696 8.54174 94.6233 8.36803 95.4389 12.5608C95.8785 14.8207 90.8769 17.9125 82.4734 21.0605C90.3387 24.1129 94.622 27.1138 93.4216 29.3134C91.2923 33.2149 72.6386 33.2608 50.2303 29.6809C24.8164 34.5844 3.59414 35.0008 2.73695 30.5944C2.28278 28.2597 7.63621 25.037 16.5484 21.7818C5.76957 18.1785 -0.483553 14.4553 0.936419 11.8535C2.09811 9.72485 8.17861 8.74391 17.104 8.87333C18.4834 4.80477 22.042 1.63721 26.5846 0.974252C33.0039 0.0373918 38.9696 4.45513 39.9562 10.8548ZM16.9105 9.50133C12.5355 9.43771 8.89172 9.64363 6.2069 10.1089C4.82234 10.3488 3.73892 10.6501 2.95721 10.9937C2.17424 11.3378 1.78999 11.6797 1.62427 11.9833C1.45855 12.287 1.43276 12.6965 1.72893 13.2443C2.02462 13.7913 2.60749 14.4072 3.49598 15.0762C5.26939 16.4117 8.14096 17.8715 11.9196 19.3615C13.6411 20.0403 15.5442 20.7229 17.6077 21.4007C18.2694 21.1661 18.949 20.9316 19.6458 20.6974C18.0662 19.0025 16.9681 16.8264 16.6081 14.3603C16.3633 12.6827 16.4842 11.0362 16.9105 9.50133ZM20.1971 21.251C19.6917 21.4195 19.1953 21.5881 18.7082 21.7568C19.8852 22.1322 21.1106 22.5057 22.3806 22.8758C21.5931 22.4198 20.86 21.8743 20.1971 21.251ZM28.1824 24.4616C28.7797 24.4663 29.3849 24.4256 29.9942 24.3367C34.7243 23.6464 38.3874 20.2404 39.6343 15.9294C42.2324 15.3415 44.9143 14.7768 47.661 14.2424C49.02 13.9781 50.3671 13.7266 51.6998 13.4879C63.122 15.6709 73.143 18.3659 80.4561 21.0515C72.5955 23.8474 62.1346 26.6524 50.5149 28.9128C50.3781 28.9394 50.2415 28.9659 50.105 28.9922C47.8519 28.6283 45.5612 28.2276 43.2457 27.7905C37.878 26.7772 32.8123 25.6497 28.1824 24.4616ZM39.8271 15.1683C40.0816 14.0005 40.1612 12.7766 40.0409 11.5303C43.2039 11.9868 46.4617 12.5194 49.7757 13.1275C49.0301 13.2662 48.2805 13.4088 47.5273 13.5553C44.8965 14.0671 42.3241 14.6069 39.8271 15.1683ZM91.4008 30.1731C92.1837 29.829 92.568 29.4872 92.7337 29.1835C92.8994 28.8799 92.9252 28.4704 92.6291 27.9225C92.3334 27.3755 91.7505 26.7597 90.862 26.0906C89.0886 24.7552 86.217 23.2954 82.4383 21.8053C82.1218 21.6805 81.7992 21.5556 81.4706 21.4306C73.812 24.2153 63.5594 27.02 52.1201 29.3095C61.489 30.7465 70.1238 31.5345 77.0606 31.6592C81.6078 31.741 85.3875 31.5369 88.1511 31.058C89.5356 30.818 90.6191 30.5167 91.4008 30.1731ZM82.7177 20.2201C82.3134 20.3739 81.9009 20.5279 81.4802 20.682C74.3941 18.0281 64.6648 15.3588 53.5384 13.1653C64.0057 11.3661 73.4957 10.3801 80.7741 10.229C85.0895 10.1394 88.5932 10.3443 91.0525 10.8333C92.2855 11.0785 93.2133 11.3871 93.8411 11.7382C94.4756 12.0931 94.7003 12.4298 94.7518 12.6945C94.8033 12.9592 94.7212 13.3556 94.266 13.9225C93.8156 14.4833 93.0711 15.1172 92.02 15.8067C89.9234 17.182 86.752 18.6854 82.7177 20.2201ZM42.9104 28.405C33.2601 26.5831 24.5731 24.3916 17.6265 22.1369C16.8797 22.4032 16.1565 22.6694 15.4582 22.9351C11.4239 24.4698 8.25252 25.9732 6.15592 27.3485C5.10477 28.038 4.36031 28.6719 3.90991 29.2327C3.45468 29.7996 3.37258 30.1961 3.42407 30.4607C3.47555 30.7254 3.70028 31.0622 4.33483 31.417C4.96263 31.7681 5.89043 32.0767 7.12341 32.3219C9.58267 32.8109 13.0864 33.0158 17.4018 32.9262C25.5007 32.7581 36.3379 31.5562 48.2129 29.3505C46.4636 29.0569 44.6941 28.7417 42.9104 28.405Z" fill="#307DD8"/>
</svg>
