<svg width="470" height="516" viewBox="0 0 470 516" fill="none" xmlns="http://www.w3.org/2000/svg">
<path fill-rule="evenodd" clip-rule="evenodd" d="M454.523 203.164C445.739 235.947 413.955 260.484 367.236 272.587C320.717 284.638 260.691 283.914 198.313 267.2C135.936 250.486 83.5893 221.1 49.3286 187.404C14.9204 153.563 -0.336891 116.421 8.44723 83.6387C17.2314 50.8559 49.0153 26.3192 95.7342 14.2159C142.253 2.16454 202.28 2.88866 264.657 19.6026C327.034 36.3166 379.381 65.7028 413.642 99.3989C448.05 133.24 463.307 170.382 454.523 203.164ZM455.218 218.424C425.435 280.066 314.751 304.611 196.76 272.996C182.647 269.214 169.026 264.789 155.99 259.811C118.593 291.66 90.4995 327.488 74.0717 361.966C53.313 405.535 51.6789 445.655 71.1457 473.456C90.6124 501.258 128.872 513.444 176.913 508.838C224.748 504.253 280.907 483.042 333.806 446.001C386.705 408.961 425.844 363.444 446.514 320.062C464.934 281.401 468.295 245.457 455.218 218.424ZM458.243 211.28C459.029 209.133 459.722 206.945 460.319 204.717C479.496 133.144 392.591 47.6708 266.21 13.8071C139.829 -20.0567 21.8296 10.5128 2.65168 82.0858C-14.0356 144.364 49.5955 217.166 149.664 257.334C65.6723 330.026 28.4569 422.951 66.2308 476.898C108.732 537.595 230.07 525.963 337.247 450.916C440.897 378.34 493.345 273.033 458.243 211.28Z" fill="#307DD8"/>
</svg>
