<svg width="96" height="34" viewBox="0 0 96 34" fill="none" xmlns="http://www.w3.org/2000/svg">
<path fill-rule="evenodd" clip-rule="evenodd" d="M39.9906 10.4784C43.7104 11.0093 47.5618 11.6454 51.482 12.3854L51.6452 12.4163C75.404 8.16531 94.6577 7.9916 95.4734 12.1844C95.913 14.4442 90.9113 17.5361 82.5078 20.6841C90.3732 23.7365 94.6564 26.7374 93.456 28.9369C91.3268 32.8384 72.673 32.8844 50.2647 29.3045C24.8508 34.208 3.62857 34.6244 2.77137 30.218C2.3172 27.8833 7.67063 24.6606 16.5828 21.4054C5.80399 17.8021 -0.449129 14.0789 0.970843 11.477C2.13253 9.34842 8.21304 8.36747 17.1384 8.49689C18.5178 4.42834 22.0764 1.26078 26.619 0.597817C33.0384 -0.339042 39.004 4.07869 39.9906 10.4784ZM16.8297 9.57381C12.4603 9.50922 8.8533 9.71521 6.22346 10.1709C4.86803 10.4058 3.85111 10.694 3.14951 11.0024C2.44576 11.3117 2.22362 11.5648 2.15001 11.6996C2.07641 11.8345 2.00664 12.1163 2.27285 12.6088C2.53824 13.0997 3.07997 13.6821 3.94977 14.3371C5.68325 15.6425 8.51586 17.0865 12.2808 18.5711C14.1232 19.2976 16.1757 20.0288 18.4122 20.7541C18.8282 20.6096 19.251 20.4652 19.6803 20.3209C18.1006 18.6261 17.0025 16.45 16.6426 13.9838C16.4215 12.4687 16.4986 10.9789 16.8297 9.57381ZM20.6606 21.2589C20.5543 21.2941 20.4483 21.3293 20.3427 21.3646C20.5794 21.4376 20.818 21.5106 21.0583 21.5834C20.9235 21.4781 20.7909 21.3699 20.6606 21.2589ZM29.8158 23.9894C29.8867 23.9803 29.9576 23.9706 30.0286 23.9603C34.5548 23.2997 38.104 20.1526 39.4941 16.1052C42.1756 15.4953 44.9482 14.9098 47.7909 14.3568C49.1388 14.0946 50.4748 13.8451 51.7966 13.6083C62.4719 15.6615 71.8962 18.1589 78.9945 20.6681C71.3297 23.2985 61.4124 25.9137 50.4538 28.0455C50.3195 28.0717 50.1853 28.0977 50.0512 28.1236C47.9043 27.7741 45.7234 27.3912 43.5197 26.9752C38.6699 26.0596 34.069 25.0511 29.8158 23.9894ZM39.8615 14.7919C40.0833 13.7742 40.1723 12.7139 40.1118 11.6332C42.8474 12.0309 45.6538 12.4856 48.5059 12.9969C48.1919 13.0569 47.8771 13.1175 47.5618 13.1789C44.9309 13.6907 42.3586 14.2305 39.8615 14.7919ZM91.2773 29.4116C91.9811 29.1023 92.2032 28.8492 92.2768 28.7143C92.3504 28.5795 92.4202 28.2976 92.154 27.8052C91.8886 27.3143 91.3469 26.7318 90.4771 26.0769C88.7436 24.7715 85.911 23.3275 82.146 21.8429C81.7015 21.6676 81.2449 21.4921 80.7763 21.3164C73.5092 23.9048 64.04 26.4961 53.4983 28.6606C62.4136 29.987 70.611 30.7151 77.239 30.8343C81.7697 30.9158 85.502 30.7112 88.2034 30.243C89.5588 30.0082 90.5757 29.7199 91.2773 29.4116ZM82.5743 19.3764C81.9962 19.5963 81.4009 19.8166 80.7891 20.0371C74.0715 17.582 65.1285 15.1279 54.9461 13.0634C64.8838 11.4059 73.8701 10.4967 80.8189 10.3525C85.1202 10.2632 88.5822 10.4687 90.9894 10.9473C92.1987 11.1878 93.0688 11.4835 93.6314 11.7982C94.2056 12.1193 94.2841 12.3554 94.2954 12.4135C94.3068 12.4717 94.3225 12.72 93.9105 13.233C93.5069 13.7356 92.8111 14.3359 91.7801 15.0122C89.728 16.3583 86.5954 17.8467 82.5743 19.3764ZM42.9448 28.0285C33.6551 26.2748 25.258 24.1784 18.4468 22.0129C17.4826 22.351 16.5563 22.689 15.6704 23.026C11.6493 24.5557 8.51677 26.044 6.46458 27.3901C5.4336 28.0664 4.73784 28.6667 4.33419 29.1694C3.92225 29.6823 3.93798 29.9307 3.94929 29.9888C3.9606 30.0469 4.03911 30.2831 4.6133 30.6042C5.17595 30.9189 6.04603 31.2146 7.25534 31.4551C9.66251 31.9337 13.1245 32.1392 17.4259 32.0499C25.1846 31.8888 35.4835 30.7741 46.8107 28.7289C45.5312 28.5068 44.2418 28.2734 42.9448 28.0285Z" fill="white"/>
</svg>
