<svg width="130" height="80" viewBox="0 0 130 80" fill="none" xmlns="http://www.w3.org/2000/svg">
<g filter="url(#filter0_b_182_141)">
<path d="M0 40C0 17.9086 17.9086 0 40 0H130V80H40C17.9086 80 0 62.0914 0 40V40Z" fill="#307DD8" fill-opacity="0.57"/>
<path d="M40 0.5H129.5V79.5H40C18.1848 79.5 0.5 61.8152 0.5 40C0.5 18.1848 18.1848 0.5 40 0.5Z" stroke="#307DD8" stroke-opacity="0.06"/>
<path fill-rule="evenodd" clip-rule="evenodd" d="M64.9906 30.4784C68.7104 31.0093 72.5618 31.6454 76.482 32.3854L76.6452 32.4163C100.404 28.1653 119.658 27.9916 120.473 32.1844C120.913 34.4442 115.911 37.5361 107.508 40.6841C115.373 43.7365 119.656 46.7374 118.456 48.9369C116.327 52.8384 97.673 52.8844 75.2647 49.3045C49.8508 54.208 28.6286 54.6244 27.7714 50.218C27.3172 47.8833 32.6706 44.6606 41.5828 41.4054C30.804 37.8021 24.5509 34.0789 25.9708 31.477C27.1325 29.3484 33.213 28.3675 42.1384 28.4969C43.5178 24.4283 47.0764 21.2608 51.619 20.5978C58.0384 19.661 64.004 24.0787 64.9906 30.4784ZM41.8297 29.5738C37.4603 29.5092 33.8533 29.7152 31.2235 30.1709C29.868 30.4058 28.8511 30.694 28.1495 31.0024C27.4458 31.3117 27.2236 31.5648 27.15 31.6996C27.0764 31.8345 27.0066 32.1163 27.2728 32.6088C27.5382 33.0997 28.08 33.6821 28.9498 34.3371C30.6833 35.6425 33.5159 37.0865 37.2808 38.5711C39.1232 39.2976 41.1757 40.0288 43.4122 40.7541C43.8282 40.6096 44.251 40.4652 44.6803 40.3209C43.1006 38.6261 42.0025 36.45 41.6426 33.9838C41.4215 32.4687 41.4986 30.9789 41.8297 29.5738ZM45.6606 41.2589C45.5543 41.2941 45.4483 41.3293 45.3427 41.3646C45.5794 41.4376 45.818 41.5106 46.0583 41.5834C45.9235 41.4781 45.7909 41.3699 45.6606 41.2589ZM54.8158 43.9894C54.8867 43.9803 54.9576 43.9706 55.0286 43.9603C59.5548 43.2997 63.104 40.1526 64.4941 36.1052C67.1756 35.4953 69.9482 34.9098 72.7909 34.3568C74.1388 34.0946 75.4748 33.8451 76.7966 33.6083C87.4719 35.6615 96.8962 38.1589 103.995 40.6681C96.3297 43.2985 86.4124 45.9137 75.4538 48.0455C75.3195 48.0717 75.1853 48.0977 75.0512 48.1236C72.9043 47.7741 70.7234 47.3912 68.5197 46.9752C63.6699 46.0596 59.069 45.0511 54.8158 43.9894ZM64.8615 34.7919C65.0833 33.7742 65.1723 32.7139 65.1118 31.6332C67.8474 32.0309 70.6538 32.4856 73.5059 32.9969C73.1919 33.0569 72.8771 33.1175 72.5618 33.1789C69.9309 33.6907 67.3586 34.2305 64.8615 34.7919ZM116.277 49.4116C116.981 49.1023 117.203 48.8492 117.277 48.7143C117.35 48.5795 117.42 48.2976 117.154 47.8052C116.889 47.3143 116.347 46.7318 115.477 46.0769C113.744 44.7715 110.911 43.3275 107.146 41.8429C106.702 41.6676 106.245 41.4921 105.776 41.3164C98.5092 43.9048 89.04 46.4961 78.4983 48.6606C87.4136 49.987 95.611 50.7151 102.239 50.8343C106.77 50.9158 110.502 50.7112 113.203 50.243C114.559 50.0082 115.576 49.7199 116.277 49.4116ZM107.574 39.3764C106.996 39.5963 106.401 39.8166 105.789 40.0371C99.0715 37.582 90.1285 35.1279 79.9461 33.0634C89.8838 31.4059 98.8701 30.4967 105.819 30.3525C110.12 30.2632 113.582 30.4687 115.989 30.9473C117.199 31.1878 118.069 31.4835 118.631 31.7982C119.206 32.1193 119.284 32.3554 119.295 32.4135C119.307 32.4717 119.322 32.72 118.911 33.233C118.507 33.7356 117.811 34.3359 116.78 35.0122C114.728 36.3583 111.595 37.8467 107.574 39.3764ZM67.9448 48.0285C58.6551 46.2748 50.258 44.1784 43.4468 42.0129C42.4826 42.351 41.5563 42.689 40.6704 43.026C36.6493 44.5557 33.5168 46.044 31.4646 47.3901C30.4336 48.0664 29.7378 48.6667 29.3342 49.1694C28.9222 49.6823 28.938 49.9307 28.9493 49.9888C28.9606 50.0469 29.0391 50.2831 29.6133 50.6042C30.176 50.9189 31.046 51.2146 32.2553 51.4551C34.6625 51.9337 38.1245 52.1392 42.4259 52.0499C50.1846 51.8888 60.4835 50.7741 71.8107 48.7289C70.5312 48.5068 69.2418 48.2734 67.9448 48.0285Z" fill="white"/>
</g>
<defs>
<filter id="filter0_b_182_141" x="-9" y="-9" width="148" height="98" filterUnits="userSpaceOnUse" color-interpolation-filters="sRGB">
<feFlood flood-opacity="0" result="BackgroundImageFix"/>
<feGaussianBlur in="BackgroundImageFix" stdDeviation="4.5"/>
<feComposite in2="SourceAlpha" operator="in" result="effect1_backgroundBlur_182_141"/>
<feBlend mode="normal" in="SourceGraphic" in2="effect1_backgroundBlur_182_141" result="shape"/>
</filter>
</defs>
</svg>
